<?xml version="1.0" standalone="no"?><!DOCTYPE svg PUBLIC "-//W3C//DTD SVG 1.1//EN" "http://www.w3.org/Graphics/SVG/1.1/DTD/svg11.dtd"><svg t="1621342365887" class="icon" viewBox="0 0 1024 1024" version="1.1" xmlns="http://www.w3.org/2000/svg" p-id="6404" xmlns:xlink="http://www.w3.org/1999/xlink" width="200" height="200"><defs><style type="text/css"></style></defs><path d="M176.1 236.6v664h261.4V336L257.9 143.1l-70.7 91.5z" fill="#DFF0FE" p-id="6405"></path><path d="M401.8 929.6H128.6c-38.6 0-70-31.4-70-70V311h40v548.6c0 16.5 13.5 30 30 30h273.3c16.5 0 30-13.5 30-30V311h40v548.6c-0.1 38.6-31.5 70-70.1 70z" fill="#3F83C5" p-id="6406"></path><path d="M445.9 341.6L258.4 186.3 85 341.1l-26.6-29.8 199-177.8 214 177.3zM90.6 747.8h346.9v40H90.6z" fill="#3F83C5" p-id="6407"></path><path d="M265.2 469.2c-45 0-81.5-36.6-81.5-81.5 0-45 36.6-81.5 81.5-81.5s81.5 36.6 81.5 81.5c0 45-36.6 81.5-81.5 81.5z m0-123c-22.9 0-41.5 18.6-41.5 41.5s18.6 41.5 41.5 41.5 41.5-18.6 41.5-41.5-18.6-41.5-41.5-41.5z" fill="#3F83C5" p-id="6408"></path></svg>