<?xml version="1.0" standalone="no"?><!DOCTYPE svg PUBLIC "-//W3C//DTD SVG 1.1//EN" "http://www.w3.org/Graphics/SVG/1.1/DTD/svg11.dtd"><svg t="1621415697503" class="icon" viewBox="0 0 1024 1024" version="1.1" xmlns="http://www.w3.org/2000/svg" p-id="13322" xmlns:xlink="http://www.w3.org/1999/xlink" width="200" height="200"><defs><style type="text/css"></style></defs><path d="M649.385355 1023.99744A372.478758 372.478758 0 0 1 383.999573 914.344472L12.374145 542.292379A42.666524 42.666524 0 0 1 0.000853 511.999147V42.667378a42.666524 42.666524 0 0 1 42.666525-42.666525h469.331769a42.666524 42.666524 0 0 1 30.293232 12.373292L914.344472 383.999573a374.612085 374.612085 0 0 1-264.959117 639.997867zM85.333902 494.505872L445.012703 853.331342A288.85237 288.85237 0 1 0 853.331342 445.012703L494.505872 85.333902H85.333902z" p-id="13323"></path><path d="M298.666524 426.666098a127.999573 127.999573 0 1 1 127.999574-127.999574 127.999573 127.999573 0 0 1-127.999574 127.999574z m0-170.666098a42.666524 42.666524 0 1 0 42.666525 42.666524 42.666524 42.666524 0 0 0-42.666525-42.666524z" p-id="13324"></path></svg>