<?xml version="1.0" standalone="no"?><!DOCTYPE svg PUBLIC "-//W3C//DTD SVG 1.1//EN" "http://www.w3.org/Graphics/SVG/1.1/DTD/svg11.dtd"><svg t="1621342481838" class="icon" viewBox="0 0 1024 1024" version="1.1" xmlns="http://www.w3.org/2000/svg" p-id="12217" xmlns:xlink="http://www.w3.org/1999/xlink" width="200" height="200"><defs><style type="text/css"></style></defs><path d="M11.202234 894.034069a500.790617 129.951634 0 1 0 1001.581234 0 500.790617 129.951634 0 1 0-1001.581234 0Z" fill="#ECF3FF" p-id="12218"></path><path d="M114.817537 84.056074m17.157219 0l760.050488 0q17.157219 0 17.157219 17.157218l0 754.502988q0 17.157219-17.157219 17.157219l-760.050488 0q-17.157219 0-17.157219-17.157219l0-754.502988q0-17.157219 17.157219-17.157218Z" fill="#0C538E" p-id="12219"></path><path d="M114.817537 0m17.157219 0l760.050488 0q17.157219 0 17.157219 17.157219l0 803.057916q0 17.157219-17.157219 17.157219l-760.050488 0q-17.157219 0-17.157219-17.157219l0-803.057916q0-17.157219 17.157219-17.157219Z" fill="#3390FF" p-id="12220"></path><path d="M253.462161 501.047975l61.93756-73.061156 98.282267-115.925607 22.776208-26.865345h-40.448143l134.827143 140.331751 18.872941 19.645015c10.151354 10.565987 30.439765 11.53823 40.433845 0L664.606311 359.172075l118.87093-137.157666 27.437252-31.655068c9.793912-11.295169 11.938565-29.481821 0-40.433845-10.737559-9.865401-30.025133-12.067244-40.433845 0L696.061212 235.911756l-118.87093 137.157666-27.437252 31.655068h40.433845l-134.827143-140.331751-18.872941-19.645015c-10.008378-10.480201-30.568445-11.638313-40.433845 0l-61.937559 73.061156-98.282268 115.925608-22.776208 26.865344c-9.665233 11.438146-12.024351 29.410332 0 40.433846 10.637476 9.765317 30.110919 12.181625 40.433846 0z" fill="#0C538E" p-id="12221"></path><path d="M253.462161 463.344987L315.399721 390.326724l98.282267-115.925607 22.776208-26.865345h-40.448143l134.827143 140.331751 18.872941 19.61642c10.151354 10.565987 30.439765 11.53823 40.433845 0L664.606311 321.483385l118.87093-137.157666 27.437252-31.655068c9.793912-11.295169 11.938565-29.481821 0-40.433846-10.737559-9.865401-30.025133-12.067244-40.433845 0L696.061212 198.194471l-118.87093 137.157665-27.480145 31.669366h40.433845l-134.827143-140.331751-18.872941-19.645015c-10.008378-10.480201-30.568445-11.638313-40.433845 0l-61.937559 73.061156L235.790226 396.045797l-22.776208 26.865345c-9.665233 11.438146-12.024351 29.410332 0 40.433845 10.637476 9.765317 30.110919 12.181625 40.433846 0z" fill="#FFFFFF" p-id="12222"></path><path d="M214.11494 593.954314m18.958727 0l50.470818 0q18.958727 0 18.958726 18.958727l0 142.161854q0 18.958727-18.958726 18.958727l-50.470818 0q-18.958727 0-18.958727-18.958727l0-142.161854q0-18.958727 18.958727-18.958727Z" fill="#0C538E" p-id="12223"></path><path d="M383.242223 556.780341m18.958726 0l50.470819 0q18.958727 0 18.958726 18.958726l0 179.335828q0 18.958727-18.958726 18.958727l-50.470819 0q-18.958727 0-18.958726-18.958727l0-179.335828q0-18.958727 18.958726-18.958726Z" fill="#0C538E" p-id="12224"></path><path d="M552.369506 517.290142m18.958726 0l50.470819 0q18.958727 0 18.958726 18.958727l0 218.826026q0 18.958727-18.958726 18.958727l-50.470819 0q-18.958727 0-18.958726-18.958727l0-218.826026q0-18.958727 18.958726-18.958727Z" fill="#0C538E" p-id="12225"></path><path d="M721.496789 447.403072m18.958726 0l50.470818 0q18.958727 0 18.958727 18.958726l0 288.713097q0 18.958727-18.958727 18.958727l-50.470818 0q-18.958727 0-18.958726-18.958727l0-288.713097q0-18.958727 18.958726-18.958726Z" fill="#0C538E" p-id="12226"></path><path d="M214.11494 569.176431m18.958727 0l50.470818 0q18.958727 0 18.958726 18.958727l0 142.161854q0 18.958727-18.958726 18.958727l-50.470818 0q-18.958727 0-18.958727-18.958727l0-142.161854q0-18.958727 18.958727-18.958727Z" fill="#FFFFFF" p-id="12227"></path><path d="M383.242223 532.002457m18.958726 0l50.470819 0q18.958727 0 18.958726 18.958727l0 179.335828q0 18.958727-18.958726 18.958727l-50.470819 0q-18.958727 0-18.958726-18.958727l0-179.335828q0-18.958727 18.958726-18.958727Z" fill="#FFFFFF" p-id="12228"></path><path d="M552.369506 492.512259m18.958726 0l50.470819 0q18.958727 0 18.958726 18.958727l0 218.826026q0 18.958727-18.958726 18.958727l-50.470819 0q-18.958727 0-18.958726-18.958727l0-218.826026q0-18.958727 18.958726-18.958727Z" fill="#FFFFFF" p-id="12229"></path><path d="M721.496789 422.625188m18.958726 0l50.470818 0q18.958727 0 18.958727 18.958727l0 288.713097q0 18.958727-18.958727 18.958727l-50.470818 0q-18.958727 0-18.958726-18.958727l0-288.713097q0-18.958727 18.958726-18.958727Z" fill="#FFFFFF" p-id="12230"></path></svg>